<svg xmlns="http://www.w3.org/2000/svg" viewBox="0 0 48 48"><path fill="#2196f3" d="M31.2 5.9v12.4a3.37 3.37 0 0 1-3.4 3.4H14.1l-7.3 4.4-2.4-4.4h-1c-1.8 0-3.3-1.6-3.3-3.4V5.9C0 4 1.5 2.5 3.4 2.5h24.5c1.8 0 3.3 1.5 3.3 3.4z"/><path fill="#cfd8dc" d="M16.8 42.1V29.7a3.37 3.37 0 0 1 3.4-3.4H34l7.3-4.4 2.4 4.4h1a3.44 3.44 0 0 1 3.4 3.4v12.4a3.37 3.37 0 0 1-3.4 3.4H20.2a3.37 3.37 0 0 1-3.4-3.4z"/><path fill="#fff" d="M19.1 19.5h2.7l-5-15h-2.5l-4.9 15H12l.9-2.7h5.5l.7 2.7zm-5.4-5.3l1.9-5.9 1.9 5.9h-3.8z"/><path fill="#546e7a" d="M39.3 33.5v-2.3h-5.8v-2.3h-2.3v2.3h-5.7v2.3h9L31.9 37c-.7-.7-1.3-1.5-1.8-2.3L28 35.8l2.2 2.9c-2 2-3.6 3.1-3.7 3.1l1.4 2c.6-.4 2.2-1.5 4.1-3.4 2.6 2.2 4.9 3.4 4.9 3.4l1.1-2s-2.2-1.2-4.6-3.2c1.2-1.4 2.4-3.1 3.5-5.2.1.1 2.4.1 2.4.1z"/></svg>