<?xml version="1.0" encoding="utf-8"?>
<!-- Generator: Adobe Illustrator 21.1.0, SVG Export Plug-In . SVG Version: 6.00 Build 0)  -->
<svg version="1.1" id="language" xmlns="http://www.w3.org/2000/svg" xmlns:xlink="http://www.w3.org/1999/xlink" x="0px" y="0px"
     viewBox="0 0 48 48" enable-background="new 0 0 48 48" xml:space="preserve">
<path display="none" fill="#2196F3" d="M46.6,34L36,6H25c-1.7,0-3,1.3-3,3v33l8.6-8H46.6z"/>
<path fill="#2196F3" d="M31.2,5.9v12.4c0,1.9-1.5,3.4-3.4,3.4H14.1l-7.3,4.4l-2.4-4.4h-1c-1.8,0-3.3-1.6-3.3-3.4V5.9
    C0,4,1.5,2.5,3.4,2.5h24.5C29.7,2.5,31.2,4,31.2,5.9z"/>
<path fill="#CFD8DC" d="M16.8,42.1V29.7c0-1.9,1.5-3.4,3.4-3.4h13.8l7.3-4.4l2.4,4.4h1c1.8,0,3.4,1.5,3.4,3.4v12.4
    c0,1.9-1.5,3.4-3.4,3.4H20.2C18.3,45.5,16.8,44,16.8,42.1z"/>
<path fill="#FFFFFF" d="M19.1,19.5h2.7l-5-15h-2.5l-4.9,15H12l0.9-2.7h5.5L19.1,19.5z M13.7,14.2l1.9-5.9l1.9,5.9H13.7z"/>
<path fill="#546E7A" d="M39.3,33.5v-2.3h-5.8v-2.3h-2.3v2.3h-5.7v2.3h5.7h2.3h1c-0.9,1.3-1.7,2.5-2.6,3.5c-0.7-0.7-1.3-1.5-1.8-2.3
    L28,35.8c0.7,1,1.5,2,2.2,2.9c-2,2-3.6,3.1-3.7,3.1l1.4,2c0.6-0.4,2.2-1.5,4.1-3.4c2.6,2.2,4.9,3.4,4.9,3.4l1.1-2
    c0,0-2.2-1.2-4.6-3.2c1.2-1.4,2.4-3.1,3.5-5.2C37,33.5,39.3,33.5,39.3,33.5z"/>
</svg>
