<?xml version="1.0" encoding="utf-8"?>
<!-- Generator: Adobe Illustrator 21.1.0, SVG Export Plug-In . SVG Version: 6.00 Build 0)  -->
<svg version="1.1" id="Vrstva_1" xmlns="http://www.w3.org/2000/svg" xmlns:xlink="http://www.w3.org/1999/xlink" x="0px" y="0px"
	 viewBox="0 0 180 180" style="enable-background:new 0 0 180 180;" xml:space="preserve">
<style type="text/css">
	.st0{display:none;fill:#2196F3;}
	.st1{fill:#2196F3;}
	.st2{fill:#CFD8DC;}
	.st3{fill:#FFFFFF;}
	.st4{fill:#546E7A;}
</style>
<path class="st0" d="M112.7,100l-10.6-28h-11c-1.7,0-3,1.3-3,3v33l8.6-8H112.7z"/>
<path class="st1" d="M116.9,22.2v46.5c0,7.1-5.5,12.9-12.6,12.9H52.9L25.5,98.1l-9.1-16.5h-3.9C5.7,81.6,0,75.7,0,68.7V22.2
	C0,15.1,5.5,9.3,12.6,9.3h92C111.4,9.3,116.9,15.1,116.9,22.2z"/>
<path class="st2" d="M63,157.8v-46.5c0-7.1,5.5-12.9,12.6-12.9h51.7l27.5-16.5l9.1,16.5h3.6c6.8,0,12.6,5.8,12.6,12.9v46.5
	c0,7.1-5.5,12.9-12.6,12.9H75.7C68.5,170.7,63,164.9,63,157.8z"/>
<path class="st3" d="M71.7,73h10L63,16.9h-9.4L35.2,73h9.7l3.2-10h20.6L71.7,73z M51.3,53.4l7.1-22.2l7.1,22.2H51.3z"/>
<path class="st4" d="M147.4,125.5v-8.7h-21.6v-8.7H117v8.7H95.7v8.7H117h8.7h3.6c-3.2,4.8-6.5,9.3-9.7,13.3
	c-2.6-2.6-4.8-5.5-6.8-8.7l-7.7,4.2c2.6,3.9,5.5,7.4,8.4,10.7c-7.4,7.4-13.5,11.7-13.9,11.7l5.2,7.4c2.2-1.6,8.1-5.5,15.2-12.6
	c9.7,8.4,18.4,12.9,18.4,12.9l4.2-7.4c0,0-8.4-4.5-17.1-11.9c4.5-5.2,9.1-11.7,13.3-19.4C138.7,125.5,147.4,125.5,147.4,125.5z"/>
</svg>
