<svg xmlns="http://www.w3.org/2000/svg" viewBox="0 0 256 256"><path fill="#212121" d="M68.5 210.3c-34 0-58-11.2-65.8-31-6.9-17.8 0-39.6 19.8-61.9C41.3 96.1 70 76.8 103 63.3c28.8-12 58.9-18.5 84.6-18.5 34.2 0 58.2 11.2 65.8 31 6.9 17.8 0 39.7-19.8 61.9-18.9 21.3-47.5 40.6-80.5 54.1-28.8 11.8-59 18.5-84.6 18.5zm119-156.6c-24.7 0-53.5 6.3-81.4 17.9-31.8 13.1-59.2 31.6-77.4 51.9C11.5 143 5 161.6 10.6 176.1c6.3 16.1 27.4 25.4 57.7 25.4 24.7 0 53.5-6.3 81.4-17.9 31.8-13.1 59.2-31.6 77.4-51.9 17.2-19.6 23.7-38.2 18.1-52.7-6.2-16.1-27.4-25.3-57.7-25.3zM73.9 209.6c-33 0-56.2-11.1-63.6-30.1-6.7-17.3 0-38.8 19.3-60.3 18.3-20.4 45.9-39.1 77.7-52.1 27.9-11.5 57-17.9 82-17.9 33 0 56.2 11 63.6 30.1 13.6 34.9-28.9 84.3-97 112.3-28 11.6-57.1 18-82 18zM189.2 60.1c-23.7 0-51.3 6.1-78.1 17.2-30.4 12.5-56.5 30.1-73.8 49.3-16 18-22.3 35.8-17.2 48.9 5.7 14.8 25.3 23.3 53.8 23.3 23.7 0 51.3-6.1 78.1-17.1 60.4-25.1 102.1-69.9 91.2-98.3-5.9-14.8-25.5-23.3-54-23.3zm10.2 183.5c-32.1 0-76.9-25.4-114.1-64.9C60 152 40.8 122 31.5 94.4c-10-28.8-8.2-51.7 4.9-65 7.2-7.1 17.1-10.9 29.5-10.9 32.1 0 76.9 25.4 114.3 64.7 25.3 26.7 44.5 56.7 53.8 84.2 9.9 28.8 7.9 51.8-5.1 64.9-7.2 7.6-17.2 11.3-29.5 11.3zM65.9 27.6c-10 0-18 2.9-23.5 8.4-10.6 10.6-11.7 30.4-3 55.7 9 26.4 27.4 55.2 52 80.9 35.8 37.7 78.1 62.1 108.1 62.1 10 0 18-2.9 23.5-8.4 10.6-10.6 11.7-30.4 3-55.6-9-26.4-27.4-55.2-52-80.9C138.2 52 95.8 27.6 65.9 27.6zm127.5 216.6c-30.9 0-74.2-24.6-110.2-62.8-24.4-25.6-42.9-54.5-52-80.9-9.7-27.9-7.9-50.3 4.6-63 7-7 16.6-10.6 28.6-10.6 30.9 0 74.2 24.6 110.2 62.8 52.2 55 72.9 118.4 47.2 144.3-7 6.6-16.6 10.2-28.4 10.2zM64.4 37.7c-9.1 0-16.3 2.5-21.3 7.5-9.6 9.5-10.3 28.5-2.2 51.8 8.7 25 26.4 52.5 49.6 77.1 34.2 36.1 74.7 59.5 102.9 59.5 9.1 0 16.3-2.6 21.3-7.4 20.8-20.9-.9-79.8-47.4-128.8C132.9 61 92.6 37.5 64.4 37.7zm79.2 91.4c0 8.5-6.7 15.4-15 15.4-8.2 0-15-7-15-15.4 0-8.5 6.7-15.3 15-15.3 8.2 0 15 6.8 15 15.3zM94.1 256c-6 0-11.7-1.2-16.9-3.8-17.7-8.2-28.3-29.1-30-58.9-1.5-28.8 5.5-62.6 19.8-95.3C92.3 40.4 134.1 0 168.9 0c6 0 11.7 1.2 16.9 3.8 17.7 8.2 28.3 29 30 58.9 1.5 28.7-5.5 62.6-19.8 95.2-25.1 57.9-67.1 98.1-101.9 98.1zM168.9 8.9c-31 0-70.6 39-94.2 92.8-13.8 31.4-20.5 63.8-19 91.1 1.3 26.3 10.2 44.6 24.9 51.3 4.2 1.9 8.5 2.9 13.5 2.9 31 0 70.6-39.1 94.2-92.8 13.8-31.4 20.5-63.8 19-91.1-1.3-26.3-10.2-44.6-24.9-51.3-4.2-1.8-8.7-2.9-13.5-2.9zM89.2 252.3c-5.5 0-10.8-1.2-15.6-3.4-16.9-7.9-26.8-28.4-27.9-57.7-.9-28.1 6.3-61.2 20.4-93.4C91.3 40.3 132.1.2 165.4.2c5.5 0 10.8 1.2 15.6 3.5 16.9 7.9 26.8 28.4 27.9 57.7.9 28-6.3 61.1-20.4 93.3-25.3 57.3-66.2 97.6-99.3 97.6zm76.1-241.2c-28.8 0-66.4 38.5-89.7 91.3-13.5 30.7-20.4 62.2-19.5 88.4.9 25.1 8.5 42.1 21.7 48.1 3.4 1.6 7.2 2.4 11.2 2.4 28.8 0 66.4-38.4 89.7-91.3 13.5-30.7 20.4-62.2 19.5-88.4-.9-25-8.5-42-21.7-48.2-3.4-1.6-7.1-2.3-11.2-2.3z"/></svg>