<?xml version="1.0" encoding="utf-8"?>
<!-- Generator: Adobe Illustrator 21.1.0, SVG Export Plug-In . SVG Version: 6.00 Build 0)  -->
<svg version="1.1" id="Vrstva_1" xmlns="http://www.w3.org/2000/svg" xmlns:xlink="http://www.w3.org/1999/xlink" x="0px" y="0px"
	 viewBox="0 0 512 512" style="enable-background:new 0 0 512 512;" xml:space="preserve">
<style type="text/css">
	.st0{fill:#212121;}
</style>
<path class="st0" d="M136.9,420.5c-68.1,0-116.1-22.4-131.7-62c-13.8-35.5,0-79.3,39.6-123.8c37.8-42.6,95.1-81.1,161.1-108.2
	c57.6-23.9,117.9-37,169.2-37c68.4,0,116.4,22.4,131.7,62c13.8,35.5,0,79.3-39.6,123.8c-37.8,42.6-95.1,81.1-161.1,108.2
	C248.5,407.3,188.2,420.5,136.9,420.5L136.9,420.5z M375.1,107.4c-49.5,0-107.1,12.5-162.9,35.8c-63.6,26.2-118.5,63.2-154.8,103.8
	C22.9,286,10,323.2,21.1,352.2c12.6,32.2,54.9,50.7,115.5,50.7c49.5,0,107.1-12.5,162.9-35.8c63.6-26.2,118.5-63.2,154.8-103.8
	c34.5-39.1,47.4-76.3,36.3-105.3C478,125.8,435.7,107.4,375.1,107.4L375.1,107.4z M147.7,419.3c-66,0-112.5-22.1-127.2-60.2
	c-13.5-34.6,0-77.5,38.7-120.5c36.6-40.9,91.8-78.1,155.4-104.1c55.8-23,114-35.8,164.1-35.8c66,0,112.5,22.1,127.2,60.2
	c27.3,69.8-57.9,168.5-194.1,224.5C255.7,406.4,197.5,419.3,147.7,419.3L147.7,419.3z M378.4,120.2c-47.4,0-102.6,12.2-156.3,34.3
	c-60.9,25-113.1,60.2-147.6,98.7C42.4,289.2,29.8,324.7,40,351c11.4,29.5,50.7,46.5,107.7,46.5c47.4,0,102.6-12.2,156.3-34.3
	c120.9-50.1,204.3-139.9,182.4-196.5C474.7,137.2,435.4,120.2,378.4,120.2z M398.8,487.2c-64.2,0-153.9-50.7-228.3-129.7
	c-50.7-53.4-89.1-113.3-107.7-168.5C42.7,131.5,46.3,85.6,72.7,59c14.4-14.3,34.2-21.8,59.1-21.8c64.2,0,153.9,50.7,228.6,129.4
	c50.7,53.4,89.1,113.3,107.7,168.5c19.8,57.6,15.9,103.5-10.2,129.7C443.5,479.8,423.4,487.2,398.8,487.2L398.8,487.2z M131.8,55.2
	c-20.1,0-36,5.7-47.1,16.7c-21.3,21.2-23.4,60.8-6,111.5c18,52.8,54.9,110.3,104.1,161.9c71.7,75.4,156.3,124.3,216.3,124.3
	c20.1,0,36-5.7,47.1-16.7c21.3-21.2,23.4-60.8,6-111.2c-18-52.8-54.9-110.3-104.1-161.9C276.4,104.1,191.5,55.2,131.8,55.2
	L131.8,55.2z M386.8,488.4c-61.8,0-148.5-49.2-220.5-125.5C117.4,311.6,80.5,253.8,62.2,201c-19.5-55.8-15.9-100.5,9.3-126.1
	c14.1-14,33.3-21.2,57.3-21.2c61.8,0,148.5,49.2,220.5,125.5c104.4,110,145.8,236.8,94.5,288.4C429.7,481.3,410.5,488.4,386.8,488.4
	z M128.8,75.4c-18.3,0-32.7,5.1-42.6,14.9c-19.2,19.1-20.7,57-4.5,103.5c17.4,50.1,52.8,105,99.3,154.2
	c68.4,72.2,149.4,119,205.8,119c18.3,0,32.7-5.1,42.6-14.9c41.7-41.7-1.8-159.5-94.8-257.6C265.9,122,185.2,75.1,128.8,75.4
	L128.8,75.4z M287.2,258.2c0,17-13.5,30.7-30,30.7s-30-14-30-30.7c0-17,13.5-30.7,30-30.7S287.2,241.2,287.2,258.2z M188.2,512
	c-12,0-23.4-2.4-33.9-7.5c-35.4-16.4-56.7-58.1-60-117.8c-3-57.6,11.1-125.2,39.6-190.5C184.6,80.8,268.3,0,337.9,0
	c12,0,23.4,2.4,33.9,7.5c35.4,16.4,56.7,58.1,60,117.8c3,57.3-11.1,125.2-39.6,190.5C341.8,431.5,257.8,512,188.2,512L188.2,512z
	 M337.9,17.9c-62.1,0-141.3,78.1-188.4,185.5c-27.6,62.9-41.1,127.6-38.1,182.2c2.7,52.5,20.4,89.2,49.8,102.6
	c8.4,3.9,17.1,5.7,27,5.7c62.1,0,141.3-78.1,188.4-185.5c27.6-62.9,41.1-127.6,38.1-182.2C412,73.7,394.3,37,364.9,23.6
	C356.5,20,347.5,17.9,337.9,17.9L337.9,17.9z M178.3,504.5c-11.1,0-21.6-2.4-31.2-6.9c-33.9-15.8-53.7-56.7-55.8-115.4
	c-1.8-56.1,12.6-122.3,40.8-186.7C182.5,80.5,264.1,0.3,330.7,0.3c11.1,0,21.6,2.4,31.2,6.9c33.9,15.8,53.7,56.7,55.8,115.4
	c1.8,56.1-12.6,122.3-40.8,186.7C326.5,424,244.6,504.5,178.3,504.5z M330.7,22.1c-57.6,0-132.9,76.9-179.4,182.5
	c-27,61.4-40.8,124.3-39,176.8c1.8,50.1,17.1,84.1,43.5,96.3c6.9,3.3,14.4,4.8,22.5,4.8c57.6,0,132.9-76.9,179.4-182.5
	c27-61.4,40.8-124.3,39-176.8c-1.8-50.1-17.1-84.1-43.5-96.3C346.3,23.6,338.8,22.1,330.7,22.1L330.7,22.1z"/>
</svg>
