<?xml version="1.0" encoding="utf-8"?>
<!-- Generator: Adobe Illustrator 21.1.0, SVG Export Plug-In . SVG Version: 6.00 Build 0)  -->
<svg version="1.1" id="php-fusion-icon" xmlns="http://www.w3.org/2000/svg" xmlns:xlink="http://www.w3.org/1999/xlink" x="0px"
     y="0px" viewBox="0 0 256 256" enable-background="new 0 0 256 256" xml:space="preserve">
<path fill="#212121" d="M68.5,210.3c-34,0-58-11.2-65.8-31c-6.9-17.8,0-39.6,19.8-61.9C41.3,96.1,70,76.8,103,63.3
    c28.8-12,58.9-18.5,84.6-18.5c34.2,0,58.2,11.2,65.8,31c6.9,17.8,0,39.7-19.8,61.9c-18.9,21.3-47.5,40.6-80.5,54.1
    C124.3,203.6,94.1,210.3,68.5,210.3L68.5,210.3z M187.5,53.7c-24.7,0-53.5,6.3-81.4,17.9c-31.8,13.1-59.2,31.6-77.4,51.9
    C11.5,143,5,161.6,10.6,176.1c6.3,16.1,27.4,25.4,57.7,25.4c24.7,0,53.5-6.3,81.4-17.9c31.8-13.1,59.2-31.6,77.4-51.9
    c17.2-19.6,23.7-38.2,18.1-52.7C239,62.9,217.8,53.7,187.5,53.7L187.5,53.7z M73.9,209.6c-33,0-56.2-11.1-63.6-30.1
    c-6.7-17.3,0-38.8,19.3-60.3c18.3-20.4,45.9-39.1,77.7-52.1c27.9-11.5,57-17.9,82-17.9c33,0,56.2,11,63.6,30.1
    c13.6,34.9-28.9,84.3-97,112.3C127.9,203.2,98.8,209.6,73.9,209.6L73.9,209.6z M189.2,60.1c-23.7,0-51.3,6.1-78.1,17.2
    c-30.4,12.5-56.5,30.1-73.8,49.3c-16,18-22.3,35.8-17.2,48.9c5.7,14.8,25.3,23.3,53.8,23.3c23.7,0,51.3-6.1,78.1-17.1
    c60.4-25.1,102.1-69.9,91.2-98.3C237.3,68.6,217.7,60.1,189.2,60.1z M199.4,243.6c-32.1,0-76.9-25.4-114.1-64.9
    C60,152,40.8,122,31.5,94.4c-10-28.8-8.2-51.7,4.9-65c7.2-7.1,17.1-10.9,29.5-10.9c32.1,0,76.9,25.4,114.3,64.7
    c25.3,26.7,44.5,56.7,53.8,84.2c9.9,28.8,7.9,51.8-5.1,64.9C221.7,239.9,211.7,243.6,199.4,243.6L199.4,243.6z M65.9,27.6
    c-10,0-18,2.9-23.5,8.4c-10.6,10.6-11.7,30.4-3,55.7c9,26.4,27.4,55.2,52,80.9c35.8,37.7,78.1,62.1,108.1,62.1c10,0,18-2.9,23.5-8.4
    c10.6-10.6,11.7-30.4,3-55.6c-9-26.4-27.4-55.2-52-80.9C138.2,52,95.8,27.6,65.9,27.6L65.9,27.6z M193.4,244.2
    c-30.9,0-74.2-24.6-110.2-62.8c-24.4-25.6-42.9-54.5-52-80.9c-9.7-27.9-7.9-50.3,4.6-63c7-7,16.6-10.6,28.6-10.6
    c30.9,0,74.2,24.6,110.2,62.8c52.2,55,72.9,118.4,47.2,144.3C214.8,240.6,205.2,244.2,193.4,244.2z M64.4,37.7
    c-9.1,0-16.3,2.5-21.3,7.5c-9.6,9.5-10.3,28.5-2.2,51.8c8.7,25,26.4,52.5,49.6,77.1c34.2,36.1,74.7,59.5,102.9,59.5
    c9.1,0,16.3-2.6,21.3-7.4c20.8-20.9-0.9-79.8-47.4-128.8C132.9,61,92.6,37.5,64.4,37.7L64.4,37.7z M143.6,129.1
    c0,8.5-6.7,15.4-15,15.4c-8.2,0-15-7-15-15.4c0-8.5,6.7-15.3,15-15.3C136.8,113.8,143.6,120.6,143.6,129.1z M94.1,256
    c-6,0-11.7-1.2-16.9-3.8c-17.7-8.2-28.3-29.1-30-58.9C45.7,164.5,52.7,130.7,67,98C92.3,40.4,134.1,0,168.9,0c6,0,11.7,1.2,16.9,3.8
    c17.7,8.2,28.3,29,30,58.9c1.5,28.7-5.5,62.6-19.8,95.2C170.9,215.8,128.9,256,94.1,256L94.1,256z M168.9,8.9
    c-31,0-70.6,39-94.2,92.8c-13.8,31.4-20.5,63.8-19,91.1c1.3,26.3,10.2,44.6,24.9,51.3c4.2,1.9,8.5,2.9,13.5,2.9
    c31,0,70.6-39.1,94.2-92.8c13.8-31.4,20.5-63.8,19-91.1c-1.3-26.3-10.2-44.6-24.9-51.3C178.2,10,173.7,8.9,168.9,8.9L168.9,8.9z
     M89.2,252.3c-5.5,0-10.8-1.2-15.6-3.4c-16.9-7.9-26.8-28.4-27.9-57.7C44.8,163.1,52,130,66.1,97.8c25.2-57.5,66-97.6,99.3-97.6
    c5.5,0,10.8,1.2,15.6,3.5c16.9,7.9,26.8,28.4,27.9,57.7c0.9,28-6.3,61.1-20.4,93.3C163.2,212,122.3,252.3,89.2,252.3z M165.3,11.1
    c-28.8,0-66.4,38.5-89.7,91.3c-13.5,30.7-20.4,62.2-19.5,88.4c0.9,25.1,8.5,42.1,21.7,48.1c3.4,1.6,7.2,2.4,11.2,2.4
    c28.8,0,66.4-38.4,89.7-91.3c13.5-30.7,20.4-62.2,19.5-88.4c-0.9-25-8.5-42-21.7-48.2C173.1,11.8,169.4,11.1,165.3,11.1L165.3,11.1z
    "/>
</svg>
