<svg xmlns="http://www.w3.org/2000/svg" xmlns:xlink="http://www.w3.org/1999/xlink" viewBox="0 0 48 48"><path fill="#3a556a" d="M46.8 0H1.2C.5 0 0 .5 0 1.2v7.1h48V1.2c0-.7-.5-1.2-1.2-1.2z"/><ellipse fill="#fcd462" cx="35.7" cy="4.1" rx="1.3" ry="1.4"/><ellipse fill="#44c4a1" cx="40.4" cy="4.1" rx="1.3" ry="1.4"/><ellipse fill="#e56353" cx="45.1" cy="4.1" rx="1.3" ry="1.4"/><path fill="#ebf0f3" d="M10.5 7.4h8.1l-.5-1.5c-.1-.2-.3-.4-.5-.4H9.9s0 .1.1.1l.5 1.8z"/><path fill="#64798a" d="M48 8.3H10.3c-.2 0-.5-.2-.5-.4l-.6-2c-.2-.2-.4-.4-.7-.4H2.6c-.2 0-.5.2-.5.4l-.6 2c-.2.2-.4.4-.6.4H0v4.1h48V8.3z"/><g fill="#ededed"><path d="M0 46.8c0 .7.5 1.2 1.2 1.2h45.7c.6 0 1.2-.5 1.2-1.2V12.4H0v34.4zm8.7-35.9H3.5a.47.47 0 0 1-.5-.5.47.47 0 0 1 .5-.5h5.2a.47.47 0 0 1 .5.5.47.47 0 0 1-.5.5z"/><use xlink:href="#B"/><use xlink:href="#B" x="8.9"/><use xlink:href="#B" x="17.9"/><use xlink:href="#B" x="26.8"/></g><path fill="#ebf0f3" d="M12.3 14.4H2.8a1.11 1.11 0 0 0-1.1 1.1V45a1.11 1.11 0 0 0 1.1 1.1h9.4a1.11 1.11 0 0 0 1.1-1.1V15.5c0-.6-.5-1.1-1-1.1z"/><ellipse fill="#e56353" cx="7.4" cy="20" rx="3.5" ry="3.6"/><path d="M3.4 27.2h8.4v.9H3.4zm0 3.1h8.4v.9H3.4zm0 3.2h8.4v.9H3.4zm0 3.2h8.4v.9H3.4zm0 3.2h8.4v.9H3.4zm0 3.2h8.4v.9H3.4z" fill="#d5d6db"/><path fill="#fcd462" d="M17.4 15.3h7.7v8h-7.7z"/><path fill="#27a2db" d="M17.4 25.5h7.7v8h-7.7z"/><ellipse fill="#64798a" cx="40.1" cy="41.7" rx="4.7" ry="4.9"/><g fill="#ebf0f3"><circle cx="40.1" cy="39.2" r="1.8"/><path d="M40.1 45.7c1.4 0 2.6-.8 3.3-1.9-.6-1.3-1.8-2.2-3.3-2.2s-2.7.9-3.3 2.2c.7 1.2 1.9 1.9 3.3 1.9z"/></g><ellipse fill="#fcd462" cx="22.2" cy="41.7" rx="4.7" ry="4.9"/><g fill="#dc8744"><circle cx="22.2" cy="39.2" r="1.8"/><path d="M22.2 45.7c1.4 0 2.6-.8 3.3-1.9-.6-1.3-1.8-2.2-3.3-2.2s-2.7.9-3.3 2.2c.6 1.2 1.9 1.9 3.3 1.9z"/></g><path d="M27.8 16h17.5v.9H27.8zm0 2.8h17.5v.9H27.8zm0 2.8h12.3v.9H27.8zm0 4.7h17.5v.9H27.8zm0 2.8h17.5v.9H27.8zm0 2.8h12.3v.9H27.8z" fill="#d5d6db"/><defs ><path id="B" d="M17.7 10.9h-5.2a.47.47 0 0 1-.5-.5.47.47 0 0 1 .5-.5h5.2a.47.47 0 0 1 .5.5.47.47 0 0 1-.5.5z"/></defs></svg>