<?xml version="1.0" encoding="utf-8"?>
<!-- Generator: Adobe Illustrator 21.0.2, SVG Export Plug-In . SVG Version: 6.00 Build 0)  -->
<svg version="1.1" id="content_creator" xmlns="http://www.w3.org/2000/svg" xmlns:xlink="http://www.w3.org/1999/xlink" x="0px" y="0px"
	 viewBox="0 0 48 48" enable-background="new 0 0 48 48" xml:space="preserve">
<path fill="#c0392b" d="M44,0H9C8.4,0,8,0.4,8,1c0,0.6,0.4,1,1,1h35c0.6,0,1-0.4,1-1C45,0.4,44.6,0,44,0z"/>
<path fill="#e74c3c" d="M45,47c0,0.6-0.4,1-1,1H9c-0.6,0-1-0.4-1-1V5c0-0.6,0.4-1,1-1h35c0.6,0,1,0.4,1,1V47z"/>
<polygon fill="#f39c12" points="15,28 21,18 27,28 "/>
<polygon fill="#f1c40f" points="20,28 28,14 36,28 "/>
<g>
	<path fill="#2c3e50" d="M29.5,40h-8c-0.6,0-1-0.4-1-1c0-0.6,0.4-1,1-1h8c0.6,0,1,0.4,1,1C30.5,39.6,30.1,40,29.5,40z"/>
	<path fill="#2c3e50" d="M33.5,36h-16c-0.6,0-1-0.4-1-1c0-0.6,0.4-1,1-1h16c0.6,0,1,0.4,1,1C34.5,35.6,34.1,36,33.5,36z"/>
</g>
<path fill="#34495e" d="M6,0C4.3,0,3,1.3,3,3v42c0,1.7,1.3,3,3,3h3V0H6z"/>
<path fill="#F5F7FA" d="M7,2c-0.6,0-1,0.4-1,1c0,0.6,0.5,1,1,1h37V2H7z"/>
</svg>
