<?xml version="1.0" encoding="utf-8"?>
<!-- Generator: Adobe Illustrator 22.0.1, SVG Export Plug-In . SVG Version: 6.00 Build 0)  -->
<svg version="1.1" id="videos" xmlns="http://www.w3.org/2000/svg" xmlns:xlink="http://www.w3.org/1999/xlink" x="0px" y="0px"
     viewBox="0 0 48 48" enable-background="new 0 0 48 48" xml:space="preserve">
<g>
    <path fill="#3A3A38" d="M48,45.2c0,1.1-0.9,1.9-1.9,1.9H1.9c-1.1,0-1.9-0.9-1.9-1.9V13.7h48V45.2L48,45.2z"/>
    <g>
        <path fill="#B0B0AF" d="M43.2,25.6H4.3c-0.2,0-0.3-0.1-0.3-0.3c0-0.2,0.1-0.3,0.3-0.3h38.9c0.2,0,0.3,0.1,0.3,0.3
            C43.5,25.5,43.3,25.6,43.2,25.6z"/>
        <path fill="#B0B0AF" d="M43.2,29H4.3c-0.2,0-0.3-0.1-0.3-0.3s0.1-0.3,0.3-0.3h38.9c0.2,0,0.3,0.1,0.3,0.3S43.3,29,43.2,29z"/>
        <path fill="#B0B0AF" d="M43.2,32.4H4.3c-0.2,0-0.3-0.1-0.3-0.3c0-0.2,0.1-0.3,0.3-0.3h38.9c0.2,0,0.3,0.1,0.3,0.3
            C43.5,32.2,43.3,32.4,43.2,32.4z"/>
        <path fill="#B0B0AF" d="M43.2,38.2H4.3c-0.2,0-0.3,0.1-0.3,0.3c0,0.2,0.1,0.3,0.3,0.3h11.7v4.6c0,0.2,0.1,0.3,0.3,0.3
            s0.3-0.1,0.3-0.3v-4.6H31v4.6c0,0.2,0.1,0.3,0.3,0.3s0.3-0.1,0.3-0.3v-4.6h11.5c0.2,0,0.3-0.1,0.3-0.3
            C43.5,38.3,43.3,38.2,43.2,38.2z"/>
    </g>
    <g>
        <polygon fill="#FFFFFF" points="13.2,20.1 8.5,20.1 13.5,13.7 18.1,13.7 		"/>
        <polygon fill="#FFFFFF" points="22.4,20.1 17.8,20.1 22.7,13.7 27.4,13.7 		"/>
        <polygon fill="#FFFFFF" points="31.5,20.1 26.9,20.1 31.8,13.7 36.5,13.7 		"/>
        <polygon fill="#FFFFFF" points="40.7,20.1 36,20.1 41,13.7 45.6,13.7 		"/>
    </g>
    <polygon fill="#3A3A38" points="8.3,5.5 3.7,6 9.4,11.9 14,11.3 	"/>
    <g>
        <polygon fill="#FFFFFF" points="3.8,6 0.5,6.4 4.8,12.4 9.4,11.9 		"/>
        <polygon fill="#FFFFFF" points="12.9,4.9 8.3,5.5 13.9,11.3 18.5,10.7 		"/>
    </g>
    <polygon fill="#3A3A38" points="17.5,4.4 12.8,4.9 18.5,10.8 23.1,10.2 	"/>
    <polygon fill="#FFFFFF" points="22.1,3.8 17.5,4.4 23.1,10.2 27.7,9.7 	"/>
    <polygon fill="#3A3A38" points="26.6,3.3 22,3.8 27.7,9.7 32.3,9.1 	"/>
    <polygon fill="#FFFFFF" points="31.1,2.7 26.5,3.3 32.1,9.1 36.8,8.6 	"/>
    <polygon fill="#3A3A38" points="35.7,2.2 31,2.8 36.7,8.6 41.3,8 	"/>
    <polygon fill="#FFFFFF" points="40.2,1.6 35.6,2.2 41.3,8 45.9,7.5 	"/>
    <g>
        <polygon fill="#3A3A38" points="46.9,0.8 40.3,1.6 45.9,7.5 47.6,7.3 		"/>
        <polygon fill="#3A3A38" points="16.1,20.7 0,20.7 0,6.5 2.3,6.2 		"/>
    </g>
    <g>
        <circle fill="#B5B4A0" cx="2.3" cy="9.9" r="0.9"/>
        <circle fill="#B5B4A0" cx="2.3" cy="17.3" r="0.9"/>
        <circle fill="#B5B4A0" cx="9.7" cy="17.3" r="0.9"/>
    </g>
</g>
</svg>
