<svg xmlns="http://www.w3.org/2000/svg" viewBox="0 0 48 48"><path fill="#3a3a38" d="M48 45.2c0 1.1-.9 1.9-1.9 1.9H1.9c-1.1 0-1.9-.9-1.9-1.9V13.7h48v31.5z"/><path d="M43.2 25.6H4.3c-.2 0-.3-.1-.3-.3s.1-.3.3-.3h38.9c.2 0 .3.1.3.3s-.2.3-.3.3zm0 3.4H4.3c-.2 0-.3-.1-.3-.3s.1-.3.3-.3h38.9c.2 0 .3.1.3.3s-.2.3-.3.3zm0 3.4H4.3c-.2 0-.3-.1-.3-.3s.1-.3.3-.3h38.9c.2 0 .3.1.3.3 0 .1-.2.3-.3.3zm0 5.8H4.3c-.2 0-.3.1-.3.3s.1.3.3.3H16v4.6c0 .2.1.3.3.3s.3-.1.3-.3v-4.6H31v4.6c0 .2.1.3.3.3s.3-.1.3-.3v-4.6h11.5c.2 0 .3-.1.3-.3.1-.2-.1-.3-.2-.3z" fill="#b0b0af"/><path d="M13.2 20.1H8.5l5-6.4h4.6zm9.2 0h-4.6l4.9-6.4h4.7zm9.1 0h-4.6l4.9-6.4h4.7zm9.2 0H36l5-6.4h4.6z" fill="#fff"/><path fill="#3a3a38" d="M8.3 5.5L3.7 6l5.7 5.9 4.6-.6z"/><path d="M3.8 6l-3.3.4 4.3 6 4.6-.5zm9.1-1.1l-4.6.6 5.6 5.8 4.6-.6z" fill="#fff"/><path fill="#3a3a38" d="M17.5 4.4l-4.7.5 5.7 5.9 4.6-.6z"/><path fill="#fff" d="M22.1 3.8l-4.6.6 5.6 5.8 4.6-.5z"/><path fill="#3a3a38" d="M26.6 3.3l-4.6.5 5.7 5.9 4.6-.6z"/><path fill="#fff" d="M31.1 2.7l-4.6.6 5.6 5.8 4.7-.5z"/><path fill="#3a3a38" d="M35.7 2.2l-4.7.6 5.7 5.8 4.6-.6z"/><path fill="#fff" d="M40.2 1.6l-4.6.6L41.3 8l4.6-.5z"/><path d="M46.9.8l-6.6.8 5.6 5.9 1.7-.2zM16.1 20.7H0V6.5l2.3-.3z" fill="#3a3a38"/><g fill="#b5b4a0"><circle cx="2.3" cy="9.9" r=".9"/><circle cx="2.3" cy="17.3" r=".9"/><circle cx="9.7" cy="17.3" r=".9"/></g></svg>