<svg xmlns="http://www.w3.org/2000/svg" viewBox="0 0 48 48"><path d="M37.6,48H10.9c-3.4,0-6.1-2.7-6.1-6.1v-8h32.8V48z" fill="#ff9a00"/><path d="M24 33.9h13.6V48H24z" fill="#e67500"/><path d="M36.2 41.4H15.1V3.8h28.1v30.7c0 3.8-3.1 6.9-7 6.9z" fill="#ffdf47"/><path d="M36.2 41.4H24V3.8h19.2v30.7c0 3.8-3.1 6.9-7 6.9z" fill="#ffcf00"/><path d="M36.2 41.4h-1.4V33h8.4v1.4c0 3.9-3.1 7-7 7z" fill="#e67500"/><path d="M17.3 10.3h18.8v2.8H17.3zm0 5.6h20.6v2.8H17.3zm0 5.7h17.8v2.8H17.3zm0 5.6H37V30H17.3z" fill="#ff3200"/><path d="M9.9,0C7.1,0,4.8,2.3,4.8,5.2v36.3c0-2.8,2.3-5.2,5.2-5.2s5.2,2.3,5.2,5.2V5.2C15.1,2.3,12.8,0,9.9,0z" fill="#ca80de"/><path d="M17.3 10.3H24v2.8h-6.7zm0 5.6H24v2.8h-6.7zm0 5.7H24v2.8h-6.7zm0 5.6H24V30h-6.7z" fill="#ff4f19"/></svg>