<?xml version="1.0" encoding="utf-8"?>
<!-- Generator: Adobe Illustrator 21.1.0, SVG Export Plug-In . SVG Version: 6.00 Build 0)  -->
<svg version="1.1" id="team" xmlns="http://www.w3.org/2000/svg" xmlns:xlink="http://www.w3.org/1999/xlink" x="0px" y="0px"
     viewBox="0 0 48 48" enable-background="new 0 0 48 48" xml:space="preserve">
<path fill="#0D47A1" d="M48,24c0,13.3-10.7,24-24,24C10.7,48,0,37.3,0,24S10.7,0,24,0C37.3,0,48,10.7,48,24z"/>
<g>
    <path fill="#FFFFFF" d="M24,20.5c-2.3,0-4.2,1.9-4.2,4.2s1.9,4.2,4.2,4.2s4.2-1.9,4.2-4.2S26.3,20.5,24,20.5z"/>
    <g>
        <circle fill="#FFFFFF" cx="18.4" cy="11.4" r="3.5"/>
        <circle fill="#FFFFFF" cx="29.5" cy="11.4" r="3.5"/>
        <path fill="#FFFFFF" d="M18.4,15.6c-0.8,0-1.5,0.2-2.1,0.5c1.3,1,2.2,2.6,2.2,4.4c0,1.8-0.8,3.3-2.1,4.4c1,0.5,1.9,1.3,2.6,2.2
            c-0.3-0.7-0.5-1.5-0.5-2.3c0-2.8,2-5.1,4.7-5.5C22.6,17.1,20.7,15.6,18.4,15.6z"/>
        <path fill="#FFFFFF" d="M29.5,15.6c-2.3,0-4.2,1.5-4.7,3.6c2.7,0.4,4.9,2.7,4.9,5.6c0,0.8-0.2,1.5-0.5,2.2
            c0.7-0.9,1.5-1.6,2.5-2.1c-1.3-1-2.1-2.6-2.1-4.3c0-1.8,0.8-3.3,2.1-4.4C31,15.8,30.3,15.6,29.5,15.6z"/>
        <circle fill="#FFFFFF" cx="12.8" cy="20.5" r="4.2"/>
        <circle fill="#FFFFFF" cx="35.2" cy="20.5" r="4.2"/>
        <path fill="#FFFFFF" d="M12.8,25.4c-3.5,0-6.3,2.8-6.3,6.3v2.4c0,0.2,0.1,0.4,0.3,0.6c0.2,0.1,1.7,1.2,6,1.2
            c1.5,0,2.7-0.1,3.5-0.3c0.1-2.2,1.1-4.1,2.6-5.4C18.2,27.4,15.7,25.4,12.8,25.4z"/>
        <path fill="#FFFFFF" d="M35.2,25.4c-2.9,0-5.4,2-6.1,4.7c1.5,1.3,2.5,3.3,2.6,5.5c0.9,0.2,2,0.3,3.5,0.3c4.3,0,5.9-1.1,6-1.2
            c0.2-0.1,0.3-0.3,0.3-0.6v-2.4C41.5,28.2,38.7,25.4,35.2,25.4z"/>
        <path fill="#FFFFFF" d="M24,29.6c-3.5,0-6.3,2.8-6.3,6.3v2.5c0,0.2,0.1,0.4,0.3,0.5c0.2,0.1,1.7,1.2,6,1.2s5.9-1.1,6-1.2
            c0.2-0.1,0.3-0.3,0.3-0.5v-2.5C30.3,32.4,27.5,29.6,24,29.6z"/>
    </g>
</g>
</svg>
