<?xml version="1.0" encoding="utf-8"?>
<!-- Generator: Adobe Illustrator 22.0.1, SVG Export Plug-In . SVG Version: 6.00 Build 0)  -->
<svg version="1.1" id="team" xmlns="http://www.w3.org/2000/svg" xmlns:xlink="http://www.w3.org/1999/xlink" x="0px" y="0px"
     viewBox="0 0 48 48" enable-background="new 0 0 48 48" xml:space="preserve">
<path fill="#344A5E" d="M4.1,48H18c0.3-3.2,0.5-8.2-1-11.5c-2.3-5.2-12.4-2.1-13.2-1.7c0,0-0.6,4.6-0.6,7.1
    C3.2,43.4,3.7,45.9,4.1,48z"/>
<path fill="#F3705A" d="M11.4,5.3C10,5.3,8.8,5.9,8,6.8v4.9c0.8,0.9,2.1,1.5,3.4,1.5c1.6,0,3.1-0.8,3.8-2v-4
    C14.3,6.1,12.9,5.3,11.4,5.3z"/>
<path id="SVGCleanerId_0" fill="#FFD15C" d="M14.9,13.9L14,19.3l-6,0.2l-0.5-5.2l2-1.4l0,0c0.1-0.4,0-0.8-0.2-1.1
    c-0.4-0.7-1-2-1.1-3.7C7.9,5.4,7.9,5.4,7.9,5.4s3.3-2.7,4.6-1.8s1.8,2.8,1.8,2.8s-0.1,3-0.4,4c-0.3,1.1-0.4,1.3-0.4,1.3L14.9,13.9z"
    />
<g>
    <path id="SVGCleanerId_0_1_" fill="#FFD15C" d="M14.9,13.9L14,19.3l-6,0.2l-0.5-5.2l2-1.4l0,0c0.1-0.4,0-0.8-0.2-1.1
        c-0.4-0.7-1-2-1.1-3.7C7.9,5.4,7.9,5.4,7.9,5.4s3.3-2.7,4.6-1.8s1.8,2.8,1.8,2.8s-0.1,3-0.4,4c-0.3,1.1-0.4,1.3-0.4,1.3L14.9,13.9z
        "/>
</g>
<path fill="#F7B64C" d="M9.3,11.8c0,0,0.6,1.5,1.9,1.4s2.2-1.3,2.4-1.6c0,0-0.1,2-2.2,3s-3.7,0.7-3.7,0.7L9.3,11.8z"/>
<path fill="#F3F3F3" d="M7.6,16.9c2.1,1.2,4.3,0.8,7-0.2l-1.5,17.6c-1.7,0.7-6.4,1-7.6-0.2L7.6,16.9z"/>
<ellipse fill="#66C6B9" cx="4.2" cy="25.1" rx="1.3" ry="3.7"/>
<path fill="#344A5E" d="M5.2,19L4,23.7l-1.4-0.2c0,0,1-5.4,1.1-6.9c0.1-1.4,1.1-2.1,1.1-2.1L5.2,19z"/>
<path fill="#4ABAA5" d="M7.7,13.6c0,0-1.7,0.6-2.2,0.7c-0.5,0.1-1.3,0.4-1.3,1.6s0,3.1-0.1,4.3C4,21.3,4.4,29.8,3.8,32.4
    C3.3,35,3,36.4,3,36.4s1.5,1.4,3.7,0.7c0,0,2.6-1.9,2.1-8s-1.2-9-1.2-11.4C7.6,15.5,7.7,13.6,7.7,13.6z"/>
<path fill="#66C6B9" d="M8.1,13.6l-0.7,2.3c0,0-1.6,3.1-0.4,6.6s1.7,5.2,1.7,6.7c0,0,0.3-1.3-0.1-3.4c-0.4-2.1-0.7-4.9,0-8.6
    C9.3,13.6,8.1,13.6,8.1,13.6z"/>
<path fill="#4ABAA5" d="M14.7,13.2c0,0,3.3,1.3,5.2,1.7s-1.9,22.9-1.9,22.9l-4.7,0.3c-1.7-0.3-2.8-0.9-3.4-1.8c0,0-1.5-3.9,0-11.9
    C10.9,20.1,14.7,15,14.7,13.2z"/>
<path fill="#FFD15C" d="M9,27.5c0,0,1.8-0.2,2.6-0.4c0.8-0.2,2.2-0.6,2.2-0.6l0.5,3c0,0-2.4,0.2-3.4,0.6S8,30.6,8,30.6L9,27.5z"/>
<path fill="#66C6B9" d="M13.7,12.4c0,0,0.4,1.8-0.2,3.5c-0.6,1.7-3.4,5.9-3.6,8.6c0,0,0.5-1.8,1.2-2.7c0.7-0.9,4.5-4.6,4.5-4.6
    L14.9,16l1-0.3c0,0-0.2-1.6-0.6-2.1C15,13,13.8,12.6,13.7,12.4z"/>
<path fill="#F3705A" d="M11.9,4.3c0,0-1.5-0.4-2.3,0.7C8.8,6.1,8.3,8.8,8.3,9.8s1.5,2.1,1.6,3.8c0,1.7-1.8,2.7-2.2,4.9
    c-0.4,2.2,0,3.1,0,3.1s-1.4-2.1-1.3-3.4c0-1.3,0.3-2.4,0-4c-0.3-1.6-0.8-3.7-0.3-5.9s2-7.6,5.9-6.4c0,0,1.3-0.6,2.2,1.5
    c0.9,2.1,1.3,3.2,1.5,4.4s0,6.3,0.4,7.7c0.4,1.4,1.2,3.2,1.2,3.2s-1.9-2.3-2.3-3.3c-0.4-1-1.4-3.7-1.4-3.9c0,0,0.9-1.8,0.8-3.4
    C14.3,6.7,12.6,4.9,11.9,4.3z"/>
<path fill="#66C6B9" d="M9.1,28.2c-0.3,0.8-0.3,3.7-0.3,3.7s0,0-0.1,0c-0.4,0-2.9-0.2-4.7-0.4c-1.3-0.1-2.3-0.2-2.5-0.2
    c-0.5-0.1-1-0.8-1.1-1.9c-0.2-1.2-0.1-2.1,0-3.1c0.1-1,0.9-3.5,1.1-4c0.2-0.5,0.2-1.3,0.3-1.7c0.1-0.4,0.7-2.8,1.4-4.3
    s1.7-1.9,1.8-1.9c-0.4,0.2-0.7,0.6-0.7,1.3c0,1.3,0,3.1-0.1,4.3c-0.1,0.4,0,1.8,0,3.6l0,0l-0.3,3.6h0.3l4.3,0.1h1
    C9.5,27.4,9.5,27.4,9.1,28.2z"/>
<path fill="#F3705A" d="M37.8,11.9c-0.2,1-0.5,1.9-0.9,2.8c-0.1,0.2-0.2,0.5-0.3,0.8c-0.1,0.2-0.2,0.5-0.4,0.7
    c0,0.1-0.1,0.1-0.1,0.2S36,16.5,36,16.6c-0.1,0.1-0.2,0.2-0.3,0.3c-0.1,0.1-0.2,0.2-0.3,0.3c-0.1,0.1-0.1,0.2-0.2,0.3
    c-0.1,0.2-0.2,0.5-0.3,0.7c-0.1,0.5-0.2,1-0.2,1.4c0,0.4,0,0.7,0,1c0,0.2,0,0.4,0,0.4s0-0.1,0-0.4c0-0.2,0-0.6,0-1s0-0.9,0.1-1.4
    c0.1-0.3,0.1-0.5,0.2-0.8c0.1-0.1,0.1-0.3,0.2-0.4c0.1-0.1,0.2-0.2,0.3-0.3l0.1-0.1c-0.3,0.2-0.5,0.4-0.7,0.7
    c-0.2,0.3-0.3,0.6-0.3,1C34.2,20,33.3,21.7,32,23c0.2-0.9,0-2,0.3-2.9c0.1-0.4,0.4-0.8,0.5-1.2c0.1-0.2,0.1-0.5,0.2-0.8
    c0.3-1.6,0.7-3.2,1.5-4.6c0.2-0.3,0.4-0.7,0.5-1c0.2-0.5,0.3-1.1,0.4-1.6c0.1-0.6,0.2-1.3,0.3-1.9l1.6-0.3
    C37.8,9.7,37.9,10.8,37.8,11.9z"/>
<path fill="#FFD15C" d="M37,4c0,0-1.1,1.1-1.3,1.5c-0.1,0.4-0.2,1.6-0.2,1.6s0.2,0.9,0.1,1.1c-0.1,0.3-0.1,1.9,0.5,3s1,1.8,1.2,2
    c-1,2.2-1.6,5.1-1.9,8.4l0.1,1.5l6.1-9l1.8-6.9l-3.9-3.4L37,4z"/>
<path fill="#F7B64C" d="M39.4,12.7c-1.4,1-2.3,0.4-2.3,0.4l-0.4,1.8c2.9-0.8,4.3-3.5,4.3-3.5S40.8,11.7,39.4,12.7z"/>
<path fill="#344A5E" d="M31.3,48h12.3c0.5-2.6,1.4-8.4,0.8-12c-0.8-4.5,0.8-17.5,0.8-17.5s-2.8-4.7-4.4-5.1c0,0-2.7,5.5-4.4,8.4
    c0,0-1.1-2.7-0.7-3.7c0.4-1,0.5-2.9,0.4-3.7c-0.1-0.8,0.9-0.8,0.9-0.8s-0.5,0.3-1.2,0.5l0,0c-0.3,2.5-2.1,4.5-3,6.8
    c-0.5,1.2-0.9,2.5-1.1,3.7c-0.2,1-0.5,2.1-0.9,3c0,3.4-0.1,6.5-0.3,7.4c0,0,0,7,0.4,9.5C30.9,45.9,31.1,47.1,31.3,48z"/>
<g>
    <path fill="#4ABAA5" d="M38,37.8c-0.7,0-1.3-0.5-1.3-1.3c-0.1-2.1-0.3-7.1-0.6-8.3c-0.4-1.5,0.6-8.4,0.9-9.3
        c0.4-0.9,3.7-5.6,3.7-5.6s4.3,1.6,5.1,2.1c0.9,0.5,0.9,0.5,0.9,0.5s-3.1,10.3-2,13.2c1.1,3,1.3,6.9,1.3,6.9
        C43.5,37.1,40.8,37.7,38,37.8z"/>
    <path fill="#4ABAA5" d="M36.8,14.8c0,0-0.7,2.4-0.8,4.3c0,1.9-1.7,6.3-1.8,8c-0.1,1.3-0.6,4.4-1.5,6.9c-0.4,1-1.8,1.2-2.4,0.2
        l-1.8-3c0,0,2.3-14,3.9-15.7C34.1,13.9,36.8,14.8,36.8,14.8z"/>
</g>
<path fill="#F3705A" d="M38.1,4.4c0,0,2.6,0.7,2.9,1.6c0.3,0.9,0.3,1.7,0.5,1.9c0.2,0.2,0.8-0.7,1-0.5C42.8,7.6,42.8,9,42,9.7
    c-0.8,0.8-1.1,2.1-1.3,3.6s0.1,2.2-0.2,2.6c-0.3,0.4-1.5,3.1-1.7,3.9c-0.1,0.8,0.2,2.3,0.7,3.5c0.5,1.2,0.3,2.4,0.3,2.4s1-2,0.9-2.8
    c0-0.8-0.4-1.4-0.2-2.3c0.3-0.9,2.2-4,2.3-4.5c0.1-0.6,1-1.9,1.1-4.2s-0.2-5.7-1-7.3c-0.9-1.6-2.1-2.2-3.5-2c0,0-0.7-0.5-2.2,0.4
    c-1.4,0.9-2,3.1-1.9,4.3c0,0,0.1-0.9,0.3-1.5C36,5,36.8,4.3,38.1,4.4z"/>
<ellipse transform="matrix(0.223 -0.9748 0.9748 0.223 24.8241 47.4746)" fill="#FFD15C" cx="42.2" cy="8.2" rx="1.1" ry="0.7"/>
<path fill="#F3705A" d="M34.7,13.3c0,0.1-0.1,0.1-0.1,0.2c-0.8,1.4-1.2,3.1-1.5,4.6c-0.1,0.3-0.1,0.5-0.2,0.8
    c-0.1,0.4-0.4,0.8-0.5,1.2c-0.3,0.9-0.1,2-0.3,2.9c1.3-1.3,2.2-3,2.6-4.7c0.1-0.3,0.2-0.7,0.3-1c0.2-0.3,0.5-0.5,0.7-0.7l-0.1,0.1
    c-0.1,0.1-0.2,0.2-0.3,0.3c-0.1,0.1-0.1,0.2-0.2,0.4c-0.1,0.2-0.2,0.5-0.2,0.7c-0.1,0.5-0.1,1-0.1,1.4s0,0.8,0,1c0,0.2,0,0.4,0,0.4
    s0-0.1,0-0.4c0-0.2,0-0.6,0-1s0.1-0.9,0.2-1.4c0.1-0.2,0.1-0.5,0.3-0.7c0.1-0.1,0.1-0.2,0.2-0.3c0.1-0.1,0.2-0.2,0.3-0.3
    c0.1-0.1,0.2-0.2,0.3-0.3c0-0.1,0.1-0.1,0.1-0.2c0-0.1,0.1-0.1,0.1-0.2c0.2-0.2,0.3-0.5,0.4-0.7c0.1-0.3,0.2-0.5,0.3-0.8
    c0.2-0.5,0.3-1.2,0.3-1.6L34.7,13.3z"/>
<path fill="#66C6B9" d="M41.4,20.7c0,0,0.1-1.7,1.9-3.5c1.8-1.8,2.5-1.9,3.7-1.7c1.1,0.3,0.8,2.3,0.6,3.6c-0.3,1.3-0.2,3.2-0.9,4.2
    c-0.7,1-1.4,2.5-1.8,3.2c-0.4,0.7-2.6,3.3-3.2,4S40.2,32,39,32s-4.6-0.1-4.6-0.1s-0.8-2.1,0-3.5c0,0,2.8-0.1,3.1-0.1
    c0.3,0,0.4-0.2,0.5-0.4c0.1-0.2,0.4-0.2,0.6-0.5c0.2-0.3,1.3-1.9,1.4-2.1C40,25.3,41.4,21.4,41.4,20.7z"/>
<path fill="#FFD15C" d="M27.7,7.7c0,0-0.3,1.7-0.7,2.4v3.8l-2.8,2.8l-3.1-3.2v-3.1c0,0-0.6-2-0.6-3.1s-0.3-2.3,0-3.2
    s0.5-2.4,1.2-2.7s4.8-0.3,5.2,0c0.6,0.4,1,1.9,1,2.5S27.7,7.7,27.7,7.7z"/>
<path fill="#F7B64C" d="M24.5,12.2c-1.5,0.4-3.2-1.6-3.4-1.8v3.1c1.2,0.2,5.1,0.4,5.8-3.5C27,10,26,11.9,24.5,12.2z"/>
<g>
    <ellipse transform="matrix(0.1219 -0.9925 0.9925 0.1219 17.5389 33.7764)" fill="#FFD15C" cx="27.9" cy="7" rx="1.5" ry="0.6"/>
    <ellipse transform="matrix(0.9925 -0.1219 0.1219 0.9925 -0.6904 2.5444)" fill="#FFD15C" cx="20.4" cy="6.9" rx="0.6" ry="1.5"/>
</g>
<path fill="#415A6B" d="M20.5,6.4h0.2c0,0-0.2-1.4,0.1-1.8s0.5-1.4,0.5-1.9s0.3-1,0.9-1s4.1,0.4,4.6,0.2s0.8,0.4,0.8,0.8
    s-0.1,1.4,0.1,1.8c0.2,0.4,0,1.8,0,1.8h0.2c0,0,0.4-1.2,0.4-2.1S28.1,1.3,26,0.4S21.8,0.7,21,1.6C20.3,2.5,20.2,5.2,20.5,6.4z"/>
<path fill="#CED6E0" d="M27.4,12.8c0,0,1.6,0.8,3,1.1c1.3,0.3,4.4,1.5,4.7,2.1c0.4,0.6,0.4,0.6,0.4,0.6S33.2,33.4,33,35.1
    c-0.2,1.7-1.6,4.6-1.6,4.6s-2.8,2.8-6.4,2.8c-3.8,0-8.1-2-8.7-3.1c-0.6-1.1-1.1-4.1-0.9-5.1c0.2-1.1-2.1-16.2-2.1-16.2
    s0.3-1.2,2-2.1c1.8-0.9,4.7-2.3,5.2-2.6c0.5-0.3,0.4-0.1,0.4-0.1l1.7,1.9l1.1-0.1l0.5-0.1l2.2-0.3L27.4,12.8z"/>
<g>
    <path fill="#F3705A" d="M22.8,15.7c1-0.4,2.1-0.3,3.3,0c-0.6,0.7-1,1.3-1.4,2c-0.4-0.2-0.9-0.2-1.4,0c-0.1-0.8-0.2-1.2-0.8-1.7"/>
    <path fill="#F3705A" d="M24.4,17.1l0.2,0.7c0,0,0.3,2,0.3,3.1c0,1-0.9,19.2-0.9,19.2s-1.5,1.4-1.5,1.3c0-0.1-1-1.4-1-1.4
        s1-14.8,1.3-17.9s0.4-4.2,0.4-4.2L24.4,17.1z"/>
</g>
<g>
    <path fill="#F3F3F3" d="M27,12c0,0-0.1,1.2-2.7,2.9c0,0,0.9,1,1.1,1.6c0.2,0.6,0.3,0.7,0.3,0.7s1.4-2,1.8-2.7
        c0.3-0.6,0.3-1.4,0.2-1.8C27.5,12.5,27,12,27,12z"/>
    <path fill="#F3F3F3" d="M23.9,15c0,0-1,1.1-1.3,2.3c0,0-1.1-1.4-1.3-1.7c-0.2-0.3-1.1-1.7-0.2-3.2C21.1,12.4,21.8,14.1,23.9,15z"/>
    <path fill="#F3F3F3" d="M34.1,15.2c0,0-0.9,1.9-1.8,4.5s-1.4,6-1.4,6.7c0,0.7,0,2.1,0,2.3s-0.1,0.1-0.5,0.1c-0.4,0-3.5,0.1-4.7,0.2
        c-1.3,0.1-3,0.3-3,0.3s-0.2,1.9,0,3.3l3.1,0.9c0,0,0.2,0.4,1,0.4c0.8,0,1.6-0.1,2.7-0.3c1.1-0.1,4.1,0.2,4.6,0.1
        c0.6-0.1,1.7-2.2,2-3.8c0.4-1.6,1.1-8.5,0.1-11.9C35.2,14.8,34.1,15.2,34.1,15.2z"/>
</g>
<path fill="#FFD15C" d="M25.6,27c0,0,1.8-0.2,2.5-0.5c0.7-0.3,1.8-0.4,2.3-0.7c0.5-0.3,1.3-0.5,1.7-0.6c0.4-0.1,0.9-0.4,1.2-0.5
    c0.3-0.1,0.5-0.1,0.9-0.1c0.4,0,1.9-0.1,2,0.3c0.1,0.4-0.4,0.6-0.6,0.6c-0.2,0-1.2,0-1.6,0.1c-0.4,0.1-1.1,0.4-1.1,0.4
    s0.9-0.1,1.3-0.1c0.4,0,0.6,0.1,1,0.1c0.4,0,1.1,0.2,1.1,0.2s0.5,0,0.5,0.5c0,0.5-0.4,0.4-0.8,0.3c-0.4-0.1-1-0.2-1.3-0.2
    s-0.8,0-0.8,0s0.9,0.1,1.2,0.2c0.3,0.1,0.7,0.2,1,0.2c0.3,0,0.6,0.2,0.5,0.6S36,28.1,35.7,28c-0.3-0.1-1-0.2-1.4-0.2
    c-0.4,0-1.7,0-1.7,0h0.1c0,0,1.8,0,2.3,0.1c0.4,0.1,0.6,0.1,0.6,0.4s-0.4,0.3-0.7,0.3c-0.3,0-1.8,0-2.2,0.1
    c-0.4,0.2-1.2,0.4-2.1,0.4c-1,0-2.3,0-3,0.3c-0.6,0.3-1.6,0.7-1.6,0.7L25.6,27z"/>
<path fill="#F3F3F3" d="M17.1,21.7c0,0,0.9-5.1-2.7-5.2c-2-0.1-2,5.7-2.2,7.2c-0.1,1.5-0.2,4.9,0.6,7.4c0.8,2.5,1.7,2.7,2.9,2.6
    s4.7-0.6,5.9-1.1c1.2-0.4,5.1-2.4,5.1-2.4s-1.1-2.4-1-3.2c0,0-3,0.8-3.1,0.8c-0.2,0-1-0.4-1.8-0.3c-0.9,0.2-3.9,0.4-3.9,0.4
    s0.7-2.7,0.4-4.2C17.2,22.3,17.1,21.7,17.1,21.7z"/>
<path fill="#FFD15C" d="M17.1,27.9c0,0-1,0.2-1.3,0.2c-0.3,0-1.3-0.2-1.5-0.3c-0.2-0.1-0.4-0.7,0.1-0.7c0.5,0,0.8,0.3,1.6,0.3
    c0.8,0.1,0.8,0.1,0.8,0.1s-0.2-0.1-0.4-0.2c-0.2-0.1-1.1-0.3-1.3-0.3c-0.2,0-1.4-0.1-1.6-0.2c-0.2-0.1-0.4-0.2-0.3-0.5
    c0.1-0.3,0.3-0.3,0.7-0.3c0.4,0.1,0.8,0.1,1.2,0.1c0.4,0,0.9,0.1,1.2,0.2c0.3,0.1,0.7,0.2,0.7,0.2s-0.3-0.2-0.4-0.2
    s-0.8-0.3-0.9-0.4c-0.1,0-1.7-0.2-1.7-0.2s-0.8,0-0.8-0.5c0-0.5,1.3-0.4,1.5-0.3c0.2,0,1.5,0.1,1.5,0.1s-0.9-0.2-1.1-0.3
    c-0.1,0-1.1,0.1-0.9-0.8h1.1c0,0,0.5,0.1,0.8,0.1c0.3,0.1,0.8,0.2,1,0.3c0.2,0.1,1.5,1.1,1.5,1.1s0.3,0.2,0.5,0.5
    c0.2,0.3,1.1,1.7,1.1,1.7L17.1,27.9z"/>
<path fill="#415A6B" d="M33.5,48c0-0.4,0.1-0.9,0.1-1.7c0.2-2.3-1.8-7.7-1.8-7.7c-5.4,4-10.7,3.7-15.9,0c0,0-0.5,4.1-1,5.9
    c-0.2,0.9-0.2,2.2-0.2,3.4L33.5,48L33.5,48z"/>
</svg>
