<svg xmlns="http://www.w3.org/2000/svg" viewBox="0 0 48 48"><style><![CDATA[.B{fill:#ffd15c}.C{fill:#f3705a}.D{fill:#66c6b9}.E{fill:#344a5e}.F{fill:#f7b64c}.G{fill:#f3f3f3}.H{fill:#4abaa5}]]></style><path d="M4.1 48H18c.3-3.2.5-8.2-1-11.5-2.3-5.2-12.4-2.1-13.2-1.7 0 0-.6 4.6-.6 7.1 0 1.5.5 4 .9 6.1z" class="E"/><path d="M11.4 5.3c-1.4 0-2.6.6-3.4 1.5v4.9c.8.9 2.1 1.5 3.4 1.5 1.6 0 3.1-.8 3.8-2v-4c-.9-1.1-2.3-1.9-3.8-1.9z" class="C"/><path d="M14.9 13.9l-.9 5.4-6 .2-.5-5.2 2-1.4a1.39 1.39 0 0 0-.2-1.1 8.54 8.54 0 0 1-1.1-3.7l-.3-2.7s3.3-2.7 4.6-1.8 1.8 2.8 1.8 2.8-.1 3-.4 4l-.4 1.3 1.4 2.2z" class="B"/><path d="M9.3 11.8s.6 1.5 1.9 1.4 2.2-1.3 2.4-1.6c0 0-.1 2-2.2 3s-3.7.7-3.7.7l1.6-3.5z" class="F"/><path d="M7.6 16.9c2.1 1.2 4.3.8 7-.2l-1.5 17.6c-1.7.7-6.4 1-7.6-.2l2.1-17.2z" class="G"/><ellipse cx="4.2" cy="25.1" rx="1.3" ry="3.7" class="D"/><path d="M5.2 19L4 23.7l-1.4-.2 1.1-6.9c.1-1.4 1.1-2.1 1.1-2.1l.4 4.5z" class="E"/><path d="M7.7 13.6l-2.2.7c-.5.1-1.3.4-1.3 1.6l-.1 4.3c-.1 1.1.3 9.6-.3 12.2l-.8 4s1.5 1.4 3.7.7c0 0 2.6-1.9 2.1-8s-1.2-9-1.2-11.4c0-2.2.1-4.1.1-4.1z" class="H"/><path d="M8.1 13.6l-.7 2.3S5.8 19 7 22.5s1.7 5.2 1.7 6.7c0 0 .3-1.3-.1-3.4s-.7-4.9 0-8.6c.7-3.6-.5-3.6-.5-3.6z" class="D"/><path d="M14.7 13.2s3.3 1.3 5.2 1.7S18 37.8 18 37.8l-4.7.3c-1.7-.3-2.8-.9-3.4-1.8 0 0-1.5-3.9 0-11.9 1-4.3 4.8-9.4 4.8-11.2z" class="H"/><path d="M9 27.5l2.6-.4 2.2-.6.5 3s-2.4.2-3.4.6-2.9.5-2.9.5l1-3.1z" class="B"/><path d="M13.7 12.4s.4 1.8-.2 3.5-3.4 5.9-3.6 8.6c0 0 .5-1.8 1.2-2.7s4.5-4.6 4.5-4.6l-.7-1.2 1-.3s-.2-1.6-.6-2.1c-.3-.6-1.5-1-1.6-1.2z" class="D"/><path d="M11.9 4.3s-1.5-.4-2.3.7-1.3 3.8-1.3 4.8 1.5 2.1 1.6 3.8c0 1.7-1.8 2.7-2.2 4.9s0 3.1 0 3.1-1.4-2.1-1.3-3.4c0-1.3.3-2.4 0-4s-.8-3.7-.3-5.9S8.1.7 12 1.9c0 0 1.3-.6 2.2 1.5s1.3 3.2 1.5 4.4 0 6.3.4 7.7 1.2 3.2 1.2 3.2-1.9-2.3-2.3-3.3l-1.4-3.9s.9-1.8.8-3.4c-.1-1.4-1.8-3.2-2.5-3.8z" class="C"/><path d="M9.1 28.2c-.3.8-.3 3.7-.3 3.7h-.1c-.4 0-2.9-.2-4.7-.4l-2.5-.2c-.5-.1-1-.8-1.1-1.9-.2-1.2-.1-2.1 0-3.1s.9-3.5 1.1-4 .2-1.3.3-1.7.7-2.8 1.4-4.3 1.7-1.9 1.8-1.9c-.4.2-.7.6-.7 1.3L4.2 20c-.1.4 0 1.8 0 3.6l-.3 3.6h.3l4.3.1h1c0 .1 0 .1-.4.9z" class="D"/><path d="M37.8 11.9c-.2 1-.5 1.9-.9 2.8-.1.2-.2.5-.3.8-.1.2-.2.5-.4.7 0 .1-.1.1-.1.2s-.1.1-.1.2l-.6.6c-.1.1-.1.2-.2.3-.1.2-.2.5-.3.7-.1.5-.2 1-.2 1.4v1-1c0-.4 0-.9.1-1.4.1-.3.1-.5.2-.8.1-.1.1-.3.2-.4l.4-.4c-.3.2-.5.4-.7.7a1.69 1.69 0 0 0-.3 1c-.4 1.7-1.3 3.4-2.6 4.7.2-.9 0-2 .3-2.9.1-.4.4-.8.5-1.2.1-.2.1-.5.2-.8.3-1.6.7-3.2 1.5-4.6a4.67 4.67 0 0 0 .5-1c.2-.5.3-1.1.4-1.6l.3-1.9 1.6-.3c.5 1 .6 2.1.5 3.2z" class="C"/><path d="M37 4s-1.1 1.1-1.3 1.5c-.1.4-.2 1.6-.2 1.6s.2.9.1 1.1c-.1.3-.1 1.9.5 3l1.2 2c-1 2.2-1.6 5.1-1.9 8.4l.1 1.5 6.1-9 1.8-6.9-3.9-3.4L37 4z" class="B"/><path d="M39.4 12.7c-1.4 1-2.3.4-2.3.4l-.4 1.8c2.9-.8 4.3-3.5 4.3-3.5s-.2.3-1.6 1.3z" class="F"/><path d="M31.3 48h12.3c.5-2.6 1.4-8.4.8-12-.8-4.5.8-17.5.8-17.5s-2.8-4.7-4.4-5.1c0 0-2.7 5.5-4.4 8.4 0 0-1.1-2.7-.7-3.7s.5-2.9.4-3.7.9-.8.9-.8-.5.3-1.2.5c-.3 2.5-2.1 4.5-3 6.8-.5 1.2-.9 2.5-1.1 3.7-.2 1-.5 2.1-.9 3 0 3.4-.1 6.5-.3 7.4 0 0 0 7 .4 9.5 0 1.4.2 2.6.4 3.5z" class="E"/><path d="M38 37.8c-.7 0-1.3-.5-1.3-1.3l-.6-8.3c-.4-1.5.6-8.4.9-9.3.4-.9 3.7-5.6 3.7-5.6l5.1 2.1.9.5s-3.1 10.3-2 13.2c1.1 3 1.3 6.9 1.3 6.9-2.5 1.1-5.2 1.7-8 1.8zm-1.2-23s-.7 2.4-.8 4.3c0 1.9-1.7 6.3-1.8 8-.1 1.3-.6 4.4-1.5 6.9-.4 1-1.8 1.2-2.4.2l-1.8-3s2.3-14 3.9-15.7c1.7-1.6 4.4-.7 4.4-.7z" class="H"/><path d="M38.1 4.4s2.6.7 2.9 1.6.3 1.7.5 1.9.8-.7 1-.5c.3.2.3 1.6-.5 2.3-.8.8-1.1 2.1-1.3 3.6s.1 2.2-.2 2.6-1.5 3.1-1.7 3.9c-.1.8.2 2.3.7 3.5s.3 2.4.3 2.4 1-2 .9-2.8c0-.8-.4-1.4-.2-2.3.3-.9 2.2-4 2.3-4.5.1-.6 1-1.9 1.1-4.2s-.2-5.7-1-7.3c-.9-1.6-2.1-2.2-3.5-2 0 0-.7-.5-2.2.4-1.4.9-2 3.1-1.9 4.3 0 0 .1-.9.3-1.5.4-.8 1.2-1.5 2.5-1.4z" class="C"/><ellipse transform="matrix(.223 -.9748 .9748 .223 24.8241 47.4746)" cx="42.2" cy="8.2" rx="1.1" ry=".7" class="B"/><path d="M34.7 13.3c0 .1-.1.1-.1.2-.8 1.4-1.2 3.1-1.5 4.6-.1.3-.1.5-.2.8-.1.4-.4.8-.5 1.2-.3.9-.1 2-.3 2.9 1.3-1.3 2.2-3 2.6-4.7l.3-1c.2-.3.5-.5.7-.7l-.4.4c-.1.1-.1.2-.2.4s-.2.5-.2.7c-.1.5-.1 1-.1 1.4v1-1c0-.4.1-.9.2-1.4.1-.2.1-.5.3-.7.1-.1.1-.2.2-.3l.6-.6c0-.1.1-.1.1-.2s.1-.1.1-.2c.2-.2.3-.5.4-.7l.3-.8c.2-.5.3-1.2.3-1.6l-2.6.3z" class="C"/><path d="M41.4 20.7s.1-1.7 1.9-3.5 2.5-1.9 3.7-1.7c1.1.3.8 2.3.6 3.6-.3 1.3-.2 3.2-.9 4.2s-1.4 2.5-1.8 3.2-2.6 3.3-3.2 4S40.2 32 39 32s-4.6-.1-4.6-.1-.8-2.1 0-3.5l3.1-.1c.3 0 .4-.2.5-.4s.4-.2.6-.5l1.4-2.1 1.4-4.6z" class="D"/><path d="M27.7 7.7s-.3 1.7-.7 2.4v3.8l-2.8 2.8-3.1-3.2v-3.1s-.6-2-.6-3.1-.3-2.3 0-3.2.5-2.4 1.2-2.7 4.8-.3 5.2 0c.6.4 1 1.9 1 2.5s-.2 3.8-.2 3.8z" class="B"/><path d="M24.5 12.2c-1.5.4-3.2-1.6-3.4-1.8v3.1c1.2.2 5.1.4 5.8-3.5.1 0-.9 1.9-2.4 2.2z" class="F"/><g class="B"><ellipse transform="matrix(.1219 -.9925 .9925 .1219 17.5389 33.7764)" cx="27.9" cy="7" rx="1.5" ry=".6"/><ellipse transform="matrix(.9925 -.1219 .1219 .9925 -.6904 2.5444)" cx="20.4" cy="6.9" rx=".6" ry="1.5"/></g><path fill="#415a6b" d="M20.5 6.4h.2s-.2-1.4.1-1.8.5-1.4.5-1.9.3-1 .9-1 4.1.4 4.6.2.8.4.8.8-.1 1.4.1 1.8 0 1.8 0 1.8h.2s.4-1.2.4-2.1-.2-2.9-2.3-3.8-4.2.3-5 1.2c-.7.9-.8 3.6-.5 4.8z"/><path fill="#ced6e0" d="M27.4 12.8s1.6.8 3 1.1c1.3.3 4.4 1.5 4.7 2.1l.4.6L33 35.1c-.2 1.7-1.6 4.6-1.6 4.6s-2.8 2.8-6.4 2.8c-3.8 0-8.1-2-8.7-3.1s-1.1-4.1-.9-5.1c.2-1.1-2.1-16.2-2.1-16.2s.3-1.2 2-2.1l5.2-2.6c.5-.3.4-.1.4-.1l1.7 1.9 1.1-.1.5-.1 2.2-.3 1-1.9z"/><g class="C"><path d="M22.8 15.7c1-.4 2.1-.3 3.3 0a12.14 12.14 0 0 0-1.4 2c-.4-.2-.9-.2-1.4 0-.1-.8-.2-1.2-.8-1.7"/><path d="M24.4 17.1l.2.7s.3 2 .3 3.1c0 1-.9 19.2-.9 19.2s-1.5 1.4-1.5 1.3-1-1.4-1-1.4l1.3-17.9.4-4.2 1.2-.8z"/></g><path d="M27 12s-.1 1.2-2.7 2.9c0 0 .9 1 1.1 1.6s.3.7.3.7l1.8-2.7c.3-.6.3-1.4.2-1.8L27 12zm-3.1 3s-1 1.1-1.3 2.3l-1.3-1.7c-.2-.3-1.1-1.7-.2-3.2 0 0 .7 1.7 2.8 2.6zm10.2.2s-.9 1.9-1.8 4.5-1.4 6-1.4 6.7v2.3c0 .2-.1.1-.5.1l-4.7.2-3 .3s-.2 1.9 0 3.3l3.1.9s.2.4 1 .4 1.6-.1 2.7-.3c1.1-.1 4.1.2 4.6.1.6-.1 1.7-2.2 2-3.8.4-1.6 1.1-8.5.1-11.9-1-3.2-2.1-2.8-2.1-2.8z" class="G"/><path d="M25.6 27s1.8-.2 2.5-.5 1.8-.4 2.3-.7 1.3-.5 1.7-.6.9-.4 1.2-.5.5-.1.9-.1 1.9-.1 2 .3-.4.6-.6.6-1.2 0-1.6.1-1.1.4-1.1.4l1.3-.1c.4 0 .6.1 1 .1s1.1.2 1.1.2.5 0 .5.5-.4.4-.8.3-1-.2-1.3-.2h-.8s.9.1 1.2.2.7.2 1 .2.6.2.5.6-.6.3-.9.2-1-.2-1.4-.2h-1.6l2.3.1c.4.1.6.1.6.4s-.4.3-.7.3l-2.2.1c-.4.2-1.2.4-2.1.4-1 0-2.3 0-3 .3-.6.3-1.6.7-1.6.7l-.4-3.1z" class="B"/><path d="M17.1 21.7s.9-5.1-2.7-5.2c-2-.1-2 5.7-2.2 7.2-.1 1.5-.2 4.9.6 7.4s1.7 2.7 2.9 2.6 4.7-.6 5.9-1.1c1.2-.4 5.1-2.4 5.1-2.4s-1.1-2.4-1-3.2l-3.1.8c-.2 0-1-.4-1.8-.3-.9.2-3.9.4-3.9.4s.7-2.7.4-4.2l-.2-2z" class="G"/><path d="M17.1 27.9l-1.3.2c-.3 0-1.3-.2-1.5-.3s-.4-.7.1-.7.8.3 1.6.3l.8.1-.4-.2a6.11 6.11 0 0 0-1.3-.3c-.2 0-1.4-.1-1.6-.2s-.4-.2-.3-.5.3-.3.7-.3c.4.1.8.1 1.2.1a4.3 4.3 0 0 1 1.2.2l.7.2s-.3-.2-.4-.2-.8-.3-.9-.4c-.1 0-1.7-.2-1.7-.2s-.8 0-.8-.5 1.3-.4 1.5-.3c.2 0 1.5.1 1.5.1l-1.1-.3c-.1 0-1.1.1-.9-.8h1.1s.5.1.8.1l1 .3c.2.1 1.5 1.1 1.5 1.1s.3.2.5.5l1.1 1.7-3.1.3z" class="B"/><path fill="#415a6b" d="M33.5 48c0-.4.1-.9.1-1.7.2-2.3-1.8-7.7-1.8-7.7-5.4 4-10.7 3.7-15.9 0 0 0-.5 4.1-1 5.9-.2.9-.2 2.2-.2 3.4l18.8.1z"/></svg>